# Blender v2.77 (sub 0) OBJ File: 'pick.blend'
# www.blender.org
mtllib pick.mtl
o Pick_Cube
v 0.692855 -0.810174 -0.288234
v 1.000000 -1.000000 -0.098408
v 0.692855 -0.810174 0.288234
v 1.000000 -1.000000 0.098408
v -0.692855 -0.810174 0.288234
v -1.000000 -1.000000 0.098408
v -0.692855 -0.810174 -0.288234
v -1.000000 -1.000000 -0.098408
v 0.000000 0.575536 -0.288234
v 0.000000 1.000000 -0.098408
v -0.000000 0.575536 0.288234
v -0.000000 1.000000 0.098408
v 0.851682 -0.908334 -0.205070
v 0.000000 -1.117613 -0.092788
v -0.851682 -0.908334 -0.205070
v 0.000000 -0.817775 -0.324624
v 0.352999 -0.114033 -0.328084
v 0.000000 0.794152 -0.207595
v 0.615796 0.057898 -0.103451
v 0.851682 -0.908334 0.205070
v -0.000000 -0.817775 0.324624
v -0.851682 -0.908334 0.205070
v 0.000000 -1.117613 0.092788
v 0.615796 0.057898 0.103451
v -0.000000 0.794152 0.207595
v 0.352998 -0.114033 0.328084
v -0.615796 0.057898 -0.103451
v -0.352998 -0.114033 -0.328084
v -0.352999 -0.114033 0.328084
v -0.615796 0.057898 0.103451
v -0.486887 -0.027008 0.285030
v -0.486887 -0.027008 -0.285030
v 0.486887 -0.027008 0.285030
v -0.000000 -0.971000 0.271613
v 0.486887 -0.027008 -0.285030
v 0.000000 -0.971000 -0.271614
vn 0.0000 0.0577 -0.9983
vn 0.0528 -0.0314 0.9981
vn -0.8370 0.5471 -0.0000
vn 0.8370 0.5471 0.0000
vn -0.0796 -0.4355 -0.8967
vn 0.6067 0.4113 -0.6802
vn -0.0939 -0.7398 0.6663
vn 0.3034 0.2403 0.9221
vn -0.3034 0.2403 -0.9221
vn -0.6067 0.4113 0.6802
vn -0.1168 -0.9932 0.0000
vn 0.1168 -0.9932 -0.0000
vn -0.7022 0.2419 0.6697
vn -0.3971 0.1082 0.9114
vn -0.3034 0.2403 0.9221
vn -0.3971 0.1082 -0.9114
vn -0.7022 0.2419 -0.6697
vn -0.6067 0.4113 -0.6802
vn 0.3971 0.1082 0.9114
vn 0.7022 0.2419 0.6697
vn 0.6067 0.4113 0.6802
vn 0.0939 -0.7398 0.6663
vn 0.0796 -0.4355 0.8967
vn -0.0796 -0.4355 0.8967
vn 0.7022 0.2419 -0.6697
vn 0.3971 0.1082 -0.9114
vn 0.3034 0.2403 -0.9221
vn 0.0796 -0.4355 -0.8967
vn 0.0939 -0.7398 -0.6663
vn -0.0939 -0.7398 -0.6663
vn 0.9399 0.3414 0.0000
vn -0.9399 0.3414 -0.0000
vn -0.0528 -0.0314 0.9981
vn 0.0000 -0.0049 1.0000
vn 0.0000 0.0577 0.9983
vn -0.0528 -0.0314 -0.9981
vn 0.0000 -0.0049 -1.0000
vn 0.0528 -0.0314 -0.9981
usemtl Material
s off
f 9//1 17//1 28//1
f 3//2 26//2 21//2
f 30//3 12//3 10//3 27//3
f 19//4 10//4 12//4 24//4
f 36//5 15//5 7//5 16//5
f 35//6 18//6 10//6 19//6
f 34//7 22//7 6//7 23//7
f 33//8 25//8 11//8 26//8
f 32//9 18//9 9//9 28//9
f 31//10 25//10 12//10 30//10
f 14//11 23//11 6//11 8//11
f 2//12 4//12 23//12 14//12
f 22//13 31//13 30//13 6//13
f 5//14 29//14 31//14 22//14
f 29//15 11//15 25//15 31//15
f 15//16 32//16 28//16 7//16
f 8//17 27//17 32//17 15//17
f 27//18 10//18 18//18 32//18
f 20//19 33//19 26//19 3//19
f 4//20 24//20 33//20 20//20
f 24//21 12//21 25//21 33//21
f 20//22 34//22 23//22 4//22
f 3//23 21//23 34//23 20//23
f 21//24 5//24 22//24 34//24
f 13//25 35//25 19//25 2//25
f 1//26 17//26 35//26 13//26
f 17//27 9//27 18//27 35//27
f 13//28 36//28 16//28 1//28
f 2//29 14//29 36//29 13//29
f 14//30 8//30 15//30 36//30
f 2//31 19//31 24//31 4//31
f 6//32 30//32 27//32 8//32
f 21//33 29//33 5//33
f 21//34 26//34 29//34
f 26//35 11//35 29//35
f 28//36 16//36 7//36
f 28//37 17//37 16//37
f 17//38 1//38 16//38
